<svg id="Layer_1" data-name="Layer 1" xmlns="http://www.w3.org/2000/svg" xmlns:xlink="http://www.w3.org/1999/xlink" viewBox="0 0 1205.41 567.25"><defs><style>.cls-1{fill:none;}.cls-2{clip-path:url(#clip-path);}.cls-3{fill:#f4f4f4;}.cls-4{fill:#232429;}.cls-5{fill:#bcae80;}</style><clipPath id="clip-path" transform="translate(-654.51 -713.01)"><path class="cls-1" d="M1859.93,935.62V713H654.51V935.62a61,61,0,1,1,0,122v222.61H1859.93V1057.65a61,61,0,1,1,0-122Z"/></clipPath></defs><g id="artwork"><g class="cls-2"><path class="cls-3" d="M1859.93,935.62V713H654.51V935.62a61,61,0,1,1,0,122v222.61H1859.93V1057.65a61,61,0,1,1,0-122Z" transform="translate(-654.51 -713.01)"/><path class="cls-4" d="M680.17,1254.61V1079.43l1-.33a86.68,86.68,0,0,0,0-164.93l-1-.34V738.66h1154.1V913.83l-1,.34a86.68,86.68,0,0,0,0,164.93l1,.33v175.18Z" transform="translate(-654.51 -713.01)"/><path class="cls-5" d="M1832.77,740.16V912.74a88.18,88.18,0,0,0,0,167.78v172.59H681.67V1080.52a88.18,88.18,0,0,0,0-167.78V740.16h1151.1m3-3H678.67V914.92l2.07.67a85.18,85.18,0,0,1,0,162.08l-2.07.67v177.77h1157.1V1078.34l-2.07-.67a85.18,85.18,0,0,1,0-162.08l2.07-.67V737.16Z" transform="translate(-654.51 -713.01)"/></g></g><rect class="cls-3" x="925.52" y="25.78" width="2.9" height="5.81"/><path class="cls-3" d="M1582.94,1237H1580v-11.72h2.9Zm0-23.44H1580v-11.73h2.9Zm0-23.45H1580v-11.72h2.9Zm0-23.45H1580v-11.72h2.9Zm0-23.44H1580v-11.72h2.9Zm0-23.45H1580V1108h2.9Zm0-23.44H1580v-11.73h2.9Zm0-23.45H1580v-11.72h2.9Zm0-23.44H1580v-11.73h2.9Zm0-23.45H1580v-11.72h2.9Zm0-23.45H1580V990.77h2.9Zm0-23.44H1580V967.32h2.9Zm0-23.45H1580V943.88h2.9Zm0-23.44H1580V920.43h2.9Zm0-23.45H1580V897h2.9Zm0-23.45H1580V873.54h2.9Zm0-23.44H1580V850.09h2.9Zm0-23.45H1580V826.65h2.9Zm0-23.44H1580V803.2h2.9Zm0-23.45H1580V779.76h2.9Zm0-23.45H1580V756.31h2.9Z" transform="translate(-654.51 -713.01)"/><rect class="cls-3" x="925.52" y="535.67" width="2.9" height="5.81"/><g id="text"><rect class="cls-3" x="1662.82" y="1171.21" width="5.57" height="101.83" transform="translate(-211.03 2174.73) rotate(-90)"/><rect class="cls-3" x="1664.22" y="1162.94" width="2.79" height="101.83" transform="translate(-202.76 2166.46) rotate(-90)"/><rect class="cls-3" x="1663.69" y="1155.02" width="3.83" height="101.83" transform="translate(-194.84 2158.54) rotate(-90)"/><rect class="cls-3" x="1664.65" y="1148.8" width="1.91" height="101.83" transform="translate(-188.62 2152.32) rotate(-90)"/><rect class="cls-3" x="1661.95" y="1139.77" width="7.31" height="101.83" transform="translate(-179.59 2143.29) rotate(-90)"/><rect class="cls-3" x="1662.82" y="814.94" width="5.57" height="101.83" transform="translate(145.24 1818.46) rotate(-90)"/><rect class="cls-3" x="1664.22" y="800.54" width="2.78" height="101.83" transform="translate(159.64 1804.05) rotate(-90)"/><rect class="cls-3" x="1663.69" y="792.62" width="3.83" height="101.83" transform="translate(167.56 1796.13) rotate(-90)"/><rect class="cls-3" x="1664.65" y="786.39" width="1.91" height="101.83" transform="translate(173.79 1789.91) rotate(-90)"/><rect class="cls-3" x="1661.95" y="777.36" width="7.31" height="101.83" transform="translate(182.82 1780.88) rotate(-90)"/><rect class="cls-3" x="1663.35" y="1128.67" width="4.53" height="101.83" transform="translate(-168.49 2132.19) rotate(-90)"/><rect class="cls-3" x="1664.48" y="1122.45" width="2.26" height="101.83" transform="translate(-162.27 2125.97) rotate(-90)"/><rect class="cls-3" x="1664.8" y="1106.19" width="1.61" height="101.83" transform="translate(-146.02 2109.71) rotate(-90)"/><rect class="cls-3" x="1663.63" y="1113.81" width="3.96" height="101.83" transform="translate(-153.63 2117.33) rotate(-90)"/><rect class="cls-3" x="1662.82" y="1099.62" width="5.57" height="101.83" transform="translate(-139.44 2103.14) rotate(-90)"/><rect class="cls-3" x="1664.48" y="1013.83" width="2.26" height="101.83" transform="translate(-53.65 2017.35) rotate(-90)"/><rect class="cls-3" x="1664.8" y="992.5" width="1.61" height="101.83" transform="translate(-32.32 1996.02) rotate(-90)"/><rect class="cls-3" x="1662.3" y="1003.87" width="6.61" height="101.83" transform="translate(-43.69 2007.38) rotate(-90)"/><rect class="cls-3" x="1662.82" y="985.93" width="5.57" height="101.83" transform="translate(-25.75 1989.44) rotate(-90)"/><rect class="cls-3" x="1664.22" y="1087.26" width="2.79" height="101.83" transform="translate(-127.09 2090.78) rotate(-90)"/><rect class="cls-3" x="1663.69" y="1075.25" width="3.83" height="101.83" transform="translate(-115.08 2078.77) rotate(-90)"/><rect class="cls-3" x="1664.65" y="1069.03" width="1.91" height="101.83" transform="translate(-108.85 2072.55) rotate(-90)"/><rect class="cls-3" x="1663.26" y="1061.31" width="4.7" height="101.83" transform="translate(-101.13 2064.83) rotate(-90)"/><rect class="cls-3" x="1661.61" y="1050.65" width="8.01" height="101.83" transform="translate(-90.47 2054.16) rotate(-90)"/><rect class="cls-3" x="1664.48" y="1042.68" width="2.26" height="101.83" transform="translate(-82.5 2046.2) rotate(-90)"/><rect class="cls-3" x="1663.69" y="973.58" width="3.83" height="101.83" transform="translate(-13.4 1977.1) rotate(-90)"/><rect class="cls-3" x="1664.65" y="967.36" width="1.91" height="101.83" transform="translate(-7.18 1970.87) rotate(-90)"/><rect class="cls-3" x="1663.26" y="959.63" width="4.7" height="101.83" transform="translate(0.55 1963.15) rotate(-90)"/><rect class="cls-3" x="1661.61" y="948.97" width="8.01" height="101.83" transform="translate(11.21 1952.49) rotate(-90)"/><rect class="cls-3" x="1664.48" y="941.01" width="2.26" height="101.83" transform="translate(19.17 1944.52) rotate(-90)"/><rect class="cls-3" x="1664.8" y="1024.38" width="1.61" height="101.83" transform="translate(-64.2 2027.9) rotate(-90)"/><rect class="cls-3" x="1663.63" y="1029.95" width="3.96" height="101.83" transform="translate(-69.77 2033.47) rotate(-90)"/><rect class="cls-3" x="1664.22" y="763.16" width="2.79" height="101.83" transform="translate(197.02 1766.67) rotate(-90)"/><rect class="cls-3" x="1663.69" y="751.14" width="3.83" height="101.83" transform="translate(209.03 1754.66) rotate(-90)"/><rect class="cls-3" x="1664.65" y="744.92" width="1.91" height="101.83" transform="translate(215.26 1748.44) rotate(-90)"/><rect class="cls-3" x="1663.26" y="737.2" width="4.7" height="101.83" transform="translate(222.98 1740.72) rotate(-90)"/><rect class="cls-3" x="1661.61" y="726.54" width="8.01" height="101.83" transform="translate(233.64 1730.05) rotate(-90)"/><rect class="cls-3" x="1664.48" y="718.57" width="2.26" height="101.83" transform="translate(241.61 1722.09) rotate(-90)"/><rect class="cls-3" x="1664.48" y="890.67" width="2.26" height="101.83" transform="translate(1952.68 -1437.03) rotate(90)"/><rect class="cls-3" x="1664.8" y="912" width="1.61" height="101.83" transform="translate(1974.01 -1415.7) rotate(90)"/><rect class="cls-3" x="1662.3" y="900.63" width="6.61" height="101.83" transform="translate(1962.64 -1427.07) rotate(90)"/><rect class="cls-3" x="1662.82" y="918.57" width="5.57" height="101.83" transform="translate(1980.58 -1409.13) rotate(90)"/><rect class="cls-3" x="1663.69" y="829.25" width="3.83" height="101.83" transform="translate(1891.25 -1498.45) rotate(90)"/><rect class="cls-3" x="1664.65" y="835.47" width="1.91" height="101.83" transform="translate(1897.48 -1492.23) rotate(90)"/><rect class="cls-3" x="1663.26" y="843.19" width="4.7" height="101.83" transform="translate(1905.2 -1484.51) rotate(90)"/><rect class="cls-3" x="1661.61" y="853.85" width="8.01" height="101.83" transform="translate(1915.86 -1473.85) rotate(90)"/><rect class="cls-3" x="1664.48" y="861.82" width="2.26" height="101.83" transform="translate(1923.83 -1465.88) rotate(90)"/><rect class="cls-3" x="1663.69" y="930.92" width="3.83" height="101.83" transform="translate(1992.93 -1396.78) rotate(90)"/><rect class="cls-3" x="1664.8" y="880.12" width="1.61" height="101.83" transform="translate(1942.12 -1447.58) rotate(90)"/><rect class="cls-3" x="1663.63" y="874.55" width="3.96" height="101.83" transform="translate(1936.55 -1453.15) rotate(90)"/></g><path class="cls-3" d="M1729.25,1194.2c-1.85,2.14-3.61,4.57-3.61,7.51,0,3.47,2.38,6.32,6,6.32,2.66,0,4.43-1.19,7-5.37l1.7-2.8c3.29-5.42,5.24-7.89,9.47-7.89,5.89,0,9.5,3.85,9.5,9.7a11.84,11.84,0,0,1-5,9.64l-1.38-1.71a9.82,9.82,0,0,0,4.51-7.93,7.07,7.07,0,0,0-7-7.32c-3.23,0-4.47.38-8.22,6.7l-1.91,3.18c-1.94,3.28-4.22,6.18-8.36,6.18-5.13,0-8.13-3.9-8.13-8.84,0-3.23,1.72-6.37,3.85-8.7Z" transform="translate(-654.51 -713.01)"/><path class="cls-3" d="M1726.31,1163.62v14.5h13.79v-10.41H1742v10.41h14.74v-14.83h1.89v17.06h-34.21v-16.73Z" transform="translate(-654.51 -713.01)"/><path class="cls-3" d="M1724.41,1152.19v-8.12c0-5.76,3.85-9.08,9.41-9.08a9.66,9.66,0,0,1,9.51,6.6l15.29-9.22v2.81l-14.78,8.5V1150h14.78v2.23ZM1742,1150v-5.56c0-3.05-2.33-7-8.32-7-4,0-7.32,1.9-7.32,6.71V1150Z" transform="translate(-654.51 -713.01)"/><path class="cls-3" d="M1724.41,1109.59V1107l34.55,7.46v3.61l-34.55,7.75v-2.62l32.65-6.89v-.09Z" transform="translate(-654.51 -713.01)"/><path class="cls-3" d="M1726.31,1082v4.75h30.42V1082h1.89v11.73h-1.89v-4.75h-30.42v4.75h-1.9V1082Z" transform="translate(-654.51 -713.01)"/><path class="cls-3" d="M1730.87,1052.41a5.56,5.56,0,0,0-5.23,5.66c0,7.94,10.32,8.55,16.11,8.55s15.64-.57,15.64-8.27a6.31,6.31,0,0,0-6.18-6.41v-2.24c5,.48,8.08,3.76,8.08,8.84,0,9-10.36,10.46-17.3,10.46-7.27,0-18.25-1.28-18.25-10.93a7.73,7.73,0,0,1,7.13-7.89Z" transform="translate(-654.51 -713.01)"/><path class="cls-3" d="M1726.31,1021.16v14.5h13.79v-10.41H1742v10.41h14.74v-14.83h1.89v17.06h-34.21v-16.73Z" transform="translate(-654.51 -713.01)"/><path class="cls-3" d="M1724.41,998.29v-7.7c0-7.08,5-9.4,10.22-9.4,6.74,0,10.07,4.13,10.07,10.55v4.32h13.92v2.23Zm1.9-2.23h16.49v-4c0-6-3.28-8.51-8.13-8.51-6.41,0-8.36,3.42-8.36,6.89Z" transform="translate(-654.51 -713.01)"/><path class="cls-3" d="M1758.62,950.93v2.52l-10.4,3.09v11.65l10.4,3.13v2.48L1723,962.39Zm-12.3,16.78V957l-17.2,5.37Z" transform="translate(-654.51 -713.01)"/><path class="cls-3" d="M1729.25,926.39c-1.85,2.14-3.61,4.56-3.61,7.51,0,3.47,2.38,6.32,6,6.32,2.66,0,4.43-1.19,7-5.37l1.7-2.81c3.29-5.41,5.24-7.89,9.47-7.89,5.89,0,9.5,3.85,9.5,9.7a11.84,11.84,0,0,1-5,9.64l-1.38-1.71a9.81,9.81,0,0,0,4.51-7.93,7.08,7.08,0,0,0-7-7.32c-3.23,0-4.47.38-8.22,6.7l-1.91,3.18c-1.94,3.28-4.22,6.18-8.36,6.18-5.13,0-8.13-3.89-8.13-8.83a13.49,13.49,0,0,1,3.85-8.71Z" transform="translate(-654.51 -713.01)"/><path class="cls-3" d="M1729.25,897.89c-1.85,2.14-3.61,4.57-3.61,7.51,0,3.47,2.38,6.33,6,6.33,2.66,0,4.43-1.19,7-5.37l1.7-2.81c3.29-5.42,5.24-7.89,9.47-7.89,5.89,0,9.5,3.85,9.5,9.7a11.84,11.84,0,0,1-5,9.64l-1.38-1.71a9.81,9.81,0,0,0,4.51-7.93,7.08,7.08,0,0,0-7-7.32c-3.23,0-4.47.38-8.22,6.7l-1.91,3.18c-1.94,3.28-4.22,6.18-8.36,6.18-5.13,0-8.13-3.89-8.13-8.84,0-3.23,1.72-6.37,3.85-8.7Z" transform="translate(-654.51 -713.01)"/><path class="cls-3" d="M1724.41,884.33v-7.7c0-7.08,5-9.41,10.22-9.41,6.74,0,10.07,4.13,10.07,10.55v4.32h13.92v2.24Zm1.9-2.24h16.49v-4c0-6-3.28-8.51-8.13-8.51-6.41,0-8.36,3.43-8.36,6.89Z" transform="translate(-654.51 -713.01)"/><path class="cls-3" d="M1741.52,858.54c-7.8,0-17.78-.94-17.78-10.16,0-10.08,12-10,17.78-10,14.54,0,17.77,4.57,17.77,10S1756.15,858.54,1741.52,858.54Zm15.87-10.16c0-4.57-3.56-7.66-15.87-7.66-12.74,0-15.88,3.28-15.88,7.66,0,4.94,4.09,7.79,15.88,7.79C1754.31,856.17,1757.39,852.65,1757.39,848.38Z" transform="translate(-654.51 -713.01)"/><path class="cls-3" d="M1724.41,827.39v-8.12c0-5.76,3.85-9.08,9.41-9.08a9.66,9.66,0,0,1,9.51,6.6l15.29-9.22v2.81l-14.78,8.5v6.28h14.78v2.23Zm17.54-2.23V819.6c0-3.05-2.33-7-8.32-7-4,0-7.32,1.89-7.32,6.7v5.89Z" transform="translate(-654.51 -713.01)"/><path class="cls-3" d="M1726.31,780.51v9.88h32.31v2.24h-32.31v9.83h-1.9v-22Z" transform="translate(-654.51 -713.01)"/><path class="cls-3" d="M834.11,1077.62c-25.94,0-45.4-18.81-45.4-49.29H811.2c.64,18,10.16,28.54,23.78,28.54s22.26-9.08,22.26-22.7c0-33.51-65.5-31.14-65.5-80C791.74,931,811,912,834.11,912c23.78,0,42.38,16.22,42.38,43.68H856.6c-.87-14.06-9.3-23.14-21.62-23.14-12.54,0-21.19,8.22-21.19,20.33,0,30.91,65.72,28.75,65.72,79.34C879.51,1056.22,863.52,1077.62,834.11,1077.62Z" transform="translate(-654.51 -713.01)"/><path class="cls-3" d="M905.47,914.18H979v20.75H926.22v42.38H979v20.75H926.22v56.43H979v20.76H905.47Z" transform="translate(-654.51 -713.01)"/><path class="cls-3" d="M1099.2,1075.25h-22.71l-25.5-60.54a56.89,56.89,0,0,1-10.38,1.3h-6.27v59.24h-20.76V914.18h27c28.1,0,52.1,22.91,52.1,50.8,0,17.3-9.08,32.43-22.7,41.73ZM1070.44,965a30.17,30.17,0,0,0-30.26-30.05h-5.84v60.32h5.84A30.21,30.21,0,0,0,1070.44,965Z" transform="translate(-654.51 -713.01)"/><path class="cls-3" d="M1153.48,1016h-8.87v59.24h-20.76V914.18h29.63c27.89,0,51.88,22.91,51.88,50.8S1181.37,1016,1153.48,1016Zm-.66-81.08h-8.21v60.32h8.21a30.16,30.16,0,1,0,0-60.32Z" transform="translate(-654.51 -713.01)"/><path class="cls-3" d="M1249.48,1075.25h-20.54V954.61c0-27.46,16.86-42.6,37.62-42.6s37.62,15.14,37.62,42.6v120.64h-20.54v-56.43h-34.16Zm34.16-120.64c0-14.92-7.78-22.06-17.08-22.06s-17.08,7.14-17.08,22.06v44.75h34.16Z" transform="translate(-654.51 -713.01)"/><path class="cls-3" d="M1374.67,1077.62c-25.94,0-45.4-18.81-45.4-49.29h22.49c.64,18,10.16,28.54,23.78,28.54s22.26-9.08,22.26-22.7c0-33.51-65.51-31.14-65.51-80,0-23.13,19.25-42.16,42.38-42.16,23.78,0,42.38,16.22,42.38,43.68h-19.89c-.87-14.06-9.3-23.14-21.62-23.14-12.55,0-21.19,8.22-21.19,20.33,0,30.91,65.72,28.75,65.72,79.34C1420.07,1056.22,1404.08,1077.62,1374.67,1077.62Z" transform="translate(-654.51 -713.01)"/><path class="cls-3" d="M1482.78,1077.62c-25.94,0-45.4-18.81-45.4-49.29h22.49c.65,18,10.16,28.54,23.78,28.54s22.27-9.08,22.27-22.7c0-33.51-65.51-31.14-65.51-80,0-23.13,19.24-42.16,42.37-42.16,23.78,0,42.38,16.22,42.38,43.68h-19.89c-.87-14.06-9.3-23.14-21.62-23.14-12.54,0-21.19,8.22-21.19,20.33,0,30.91,65.72,28.75,65.72,79.34C1528.18,1056.22,1512.19,1077.62,1482.78,1077.62Z" transform="translate(-654.51 -713.01)"/></svg>